<svg width="16" height="17" viewBox="0 0 16 17" fill="none" xmlns="http://www.w3.org/2000/svg">
	<path d="M15.5 6.5V5.7C15.5 4.57989 15.5 4.01984 15.282 3.59202C15.0903 3.21569 14.7843 2.90973 14.408 2.71799C13.9802 2.5 13.4201 2.5 12.3 2.5H3.7C2.5799 2.5 2.01984 2.5 1.59202 2.71799C1.21569 2.90973 0.909734 3.21569 0.717987 3.59202C0.5 4.01984 0.5 4.57989 0.5 5.7V6.5M15.5 6.5V13.3C15.5 14.4201 15.5 14.9802 15.282 15.408C15.0903 15.7843 14.7843 16.0903 14.408 16.282C13.9802 16.5 13.4201 16.5 12.3 16.5H3.7C2.57989 16.5 2.01984 16.5 1.59202 16.282C1.21569 16.0903 0.909734 15.7843 0.717987 15.408C0.5 14.9802 0.5 14.4201 0.5 13.3V6.5M15.5 6.5H0.5" stroke="#222222" />
	<path d="M4.5 0.5L4.5 4.5M11.5 0.5L11.5 4.5" stroke="#222222" stroke-linecap="round" />
	<path d="M8 14L8 9" stroke="#222222" stroke-linecap="round" />
	<path d="M10.5 11.5L5.5 11.5" stroke="#222222" stroke-linecap="round" />
</svg>
