<svg width="32" height="32" viewBox="0 0 32 32" fill="none" xmlns="http://www.w3.org/2000/svg">
    <path
        d="M26.5 12.0001C26.5002 9.98739 25.9219 8.01704 24.834 6.32368C23.7462 4.63032 22.1945 3.28531 20.3639 2.44882C18.5333 1.61233 16.5008 1.3196 14.5085 1.6055C12.5162 1.89141 10.6481 2.74389 9.12654 4.06143C7.60501 5.37897 6.49422 7.10606 5.92645 9.03701C5.35867 10.968 5.35784 13.0214 5.92404 14.9528C6.49023 16.8842 7.59961 18.6122 9.12006 19.931C10.6405 21.2498 12.5079 22.1038 14.5 22.3913V24.5001H11C10.6022 24.5001 10.2206 24.6581 9.93934 24.9394C9.65804 25.2207 9.5 25.6023 9.5 26.0001C9.5 26.3979 9.65804 26.7794 9.93934 27.0607C10.2206 27.342 10.6022 27.5001 11 27.5001H14.5V30.0001C14.5 30.3979 14.658 30.7794 14.9393 31.0607C15.2206 31.342 15.6022 31.5001 16 31.5001C16.3978 31.5001 16.7794 31.342 17.0607 31.0607C17.342 30.7794 17.5 30.3979 17.5 30.0001V27.5001H21C21.3978 27.5001 21.7794 27.342 22.0607 27.0607C22.342 26.7794 22.5 26.3979 22.5 26.0001C22.5 25.6023 22.342 25.2207 22.0607 24.9394C21.7794 24.6581 21.3978 24.5001 21 24.5001H17.5V22.3913C19.9975 22.0277 22.2809 20.7779 23.9333 18.8701C25.5856 16.9624 26.4966 14.5239 26.5 12.0001ZM8.5 12.0001C8.5 10.5167 8.93987 9.06668 9.76398 7.83331C10.5881 6.59994 11.7594 5.63865 13.1299 5.07099C14.5003 4.50333 16.0083 4.35481 17.4632 4.64419C18.918 4.93358 20.2544 5.64789 21.3033 6.69678C22.3522 7.74568 23.0665 9.08205 23.3559 10.5369C23.6453 11.9918 23.4968 13.4998 22.9291 14.8702C22.3614 16.2407 21.4001 17.412 20.1668 18.2361C18.9334 19.0602 17.4834 19.5001 16 19.5001C14.0116 19.4978 12.1053 18.7068 10.6993 17.3008C9.29324 15.8948 8.50232 13.9885 8.5 12.0001Z"
        fill="#343330" />
</svg>
    