<svg width="24" height="24" viewBox="0 0 24 24" fill="none" xmlns="http://www.w3.org/2000/svg">
    <path
        d="M18.9917 21.002H17.9917V19.335C17.9886 18.7627 17.8873 18.1952 17.6921 17.6572C17.6812 17.6279 17.6697 17.6006 17.6562 17.5727C17.4943 17.1311 17.2705 16.7147 16.9917 16.3359L15.5918 14.4687C15.2034 13.9486 14.9929 13.3171 14.9917 12.668V11.6582C14.994 10.8631 15.3096 10.101 15.8701 9.53706L16.5273 8.87983C17.291 8.11208 17.7815 7.11493 17.9236 6.04145C17.9242 6.02754 17.9316 6.01594 17.9316 6.0019L17.9288 5.98817C17.9636 5.77525 17.9846 5.56031 17.9917 5.34468V3.00195H18.9917C19.2569 3.00195 19.5113 2.8966 19.6988 2.70906C19.8864 2.52152 19.9917 2.26717 19.9917 2.00195C19.9917 1.73674 19.8864 1.48238 19.6988 1.29485C19.5113 1.10731 19.2569 1.00195 18.9917 1.00195H4.99171C4.72649 1.00195 4.47214 1.10731 4.2846 1.29485C4.09707 1.48238 3.99171 1.73674 3.99171 2.00195C3.99171 2.26717 4.09707 2.52152 4.2846 2.70906C4.47214 2.8966 4.72649 3.00195 4.99171 3.00195H5.99171V5.34468C5.99881 5.56031 6.01981 5.77525 6.05458 5.98817L6.05176 6.00195C6.05176 6.01595 6.0592 6.02759 6.05976 6.0415C6.20192 7.11497 6.69245 8.11213 7.45606 8.87988L8.11329 9.53711C8.67378 10.101 8.9894 10.8631 8.9917 11.6582V12.668C8.9904 13.317 8.78015 13.9484 8.39209 14.4687L6.99121 16.3359C6.71245 16.7149 6.48878 17.1314 6.32684 17.5731C6.31354 17.6008 6.30212 17.6277 6.29132 17.6568C6.09618 18.1949 5.99483 18.7625 5.9917 19.335V21.002H4.9917C4.72648 21.002 4.47213 21.1073 4.28459 21.2948C4.09706 21.4824 3.9917 21.7367 3.9917 22.002C3.9917 22.2672 4.09706 22.5215 4.28459 22.7091C4.47213 22.8966 4.72648 23.002 4.9917 23.002H18.9917C19.2569 23.002 19.5113 22.8966 19.6988 22.7091C19.8863 22.5215 19.9917 22.2672 19.9917 22.002C19.9917 21.7367 19.8863 21.4824 19.6988 21.2948C19.5113 21.1073 19.2569 21.002 18.9917 21.002ZM7.9917 5.00195V3.00195H15.9917V5.00195H7.9917ZM8.87012 7.46582C8.72921 7.32426 8.60294 7.16885 8.49323 7.00195H15.4902C15.3805 7.16885 15.2542 7.32426 15.1133 7.46582L14.456 8.12305C13.676 8.8985 13.1758 9.91122 13.0342 11.002H10.9492C10.8075 9.91119 10.3074 8.89843 9.52734 8.12295L8.87012 7.46582ZM9.99219 15.668C10.5708 14.8926 10.9139 13.9671 10.9805 13.002H13.0029C13.0694 13.9672 13.4127 14.8928 13.9917 15.668L14.9918 17.002H8.99133L9.99219 15.668ZM15.9917 21.002H7.9917V19.335C7.99448 19.2235 8.00357 19.1124 8.01892 19.002H15.9645C15.9798 19.1124 15.9889 19.2235 15.9917 19.335V21.002Z"
        fill="black" />
</svg> 