<svg width="32" height="32" viewBox="0 0 32 32" fill="none" xmlns="http://www.w3.org/2000/svg">
    <path
        d="M27 3.5H21C20.6022 3.5 20.2206 3.65804 19.9393 3.93934C19.658 4.22064 19.5 4.60218 19.5 5C19.5 5.39782 19.658 5.77936 19.9393 6.06066C20.2206 6.34196 20.6022 6.5 21 6.5H23.375L19.285 10.5925C17.1588 9.00348 14.5096 8.27872 11.8706 8.56404C9.23162 8.84936 6.79861 10.1236 5.06116 12.1303C3.32371 14.1371 2.41077 16.7274 2.50604 19.3801C2.60131 22.0327 3.69772 24.5509 5.57465 26.4278C7.45158 28.3048 9.96974 29.4012 12.6224 29.4964C15.2751 29.5917 17.8654 28.6788 19.8721 26.9413C21.8789 25.2039 23.1531 22.7709 23.4384 20.1319C23.7238 17.4928 22.999 14.8437 21.41 12.7175L25.5 8.625V11C25.5 11.3978 25.658 11.7794 25.9393 12.0607C26.2206 12.342 26.6022 12.5 27 12.5C27.3978 12.5 27.7793 12.342 28.0606 12.0607C28.3419 11.7794 28.5 11.3978 28.5 11V5C28.5 4.60218 28.3419 4.22064 28.0606 3.93934C27.7793 3.65804 27.3978 3.5 27 3.5ZM18.3012 24.3075C17.2522 25.3561 15.9158 26.0701 14.4611 26.3592C13.0063 26.6484 11.4984 26.4997 10.1282 25.9319C8.7579 25.3642 7.58674 24.4029 6.76277 23.1696C5.93879 21.9363 5.499 20.4864 5.499 19.0031C5.499 17.5199 5.93879 16.07 6.76277 14.8367C7.58674 13.6034 8.7579 12.6421 10.1282 12.0743C11.4984 11.5066 13.0063 11.3579 14.4611 11.647C15.9158 11.9362 17.2522 12.6502 18.3012 13.6987C19.7054 15.107 20.4938 17.0145 20.4938 19.0031C20.4938 20.9918 19.7054 22.8993 18.3012 24.3075Z"
        fill="#343330" />
</svg>
    